<!--to clean your svg  https://jakearchibald.github.io/svgomg/ -->

<!-- your viuewbox was a bit tall so I've cropped it -->
<!-- pathlength = 1 makes the path dasharray values easier to manage  -->
<svg viewBox="0 0 210 80">
      <path pathlength="1" id="path" fill="white" stroke="black" stroke-width=".8" d="m 164.9883,25.736561 c -1.04315,2.438229 -3.18305,3.657141 -6.41924,3.657141 h -12.03751 c -2.24043,0 -3.69249,0.204447 -4.35632,0.612882 -0.66385,0.408435 -1.19167,1.435349 -1.58285,3.081465 2.03892,-0.556956 4.46299,-0.835091 7.27242,-0.835091 h 2.47168 l -4.23178,22.222417 c -0.23707,1.27481 -0.35553,2.042271 -0.35553,2.302185 0,0.519827 0.30808,0.779798 0.92449,0.779798 0.97203,0 2.06873,-0.316013 3.28972,-0.947229 -0.15411,-0.396058 -0.23151,-0.767075 -0.23151,-1.113629 0,-0.358926 0.11273,-1.120158 0.33796,-2.283582 l 4.00079,-20.95996 h 2.13372 c 3.21248,0 5.39342,-0.291103 6.54327,-0.872813 1.90852,-0.977768 2.86288,-2.270881 2.86288,-3.879867 0,-0.445564 -0.20729,-1.033485 -0.62219,-1.763717 z M 33.704845,27.998438 c -5.097584,0 -9.631518,1.787965 -13.601753,5.363497 -3.95798,3.563456 -5.937105,7.64005 -5.937105,12.230261 0,2.862842 0.919383,5.230604 2.757454,7.102925 1.850325,1.860243 4.184296,2.790529 7.002673,2.790529 2.781616,0 5.483651,-1.232197 8.105965,-3.696417 -1.507218,3.865443 -2.934506,6.69182 -4.282426,8.479586 2.646826,-0.169114 4.276418,-0.615715 4.889107,-1.340485 0.61269,-0.712692 1.513541,-3.237675 2.70216,-7.574217 l 2.903699,-10.617956 c -1.740043,0.471098 -3.516858,0.779536 -5.330423,0.924494 l -2.297534,0.180866 c -2.340478,0.217432 -3.83503,0.531876 -4.484481,0.942578 -0.649453,0.398624 -1.207122,1.370957 -1.672766,2.917135 2.27921,-1.026758 5.311726,-1.540476 9.098153,-1.540476 l -0.146762,0.779283 c -0.490151,2.464218 -1.470449,4.427426 -2.940905,5.889045 -1.470458,1.461622 -3.192197,2.192115 -5.16506,2.192115 -2.193431,-2e-6 -3.958067,-0.767053 -5.293733,-2.301152 -1.323411,-1.534097 -1.984892,-3.581408 -1.984892,-6.14226 0,-3.817122 1.310778,-7.127182 3.933093,-9.929627 2.622315,-2.802446 5.716778,-4.203361 9.282637,-4.203361 2.659077,0 4.417363,1.002371 5.275132,3.007569 0.22057,-0.265751 0.39216,-0.465024 0.514696,-0.597898 1.176364,-1.328743 1.764234,-2.277049 1.764234,-2.844787 0,-1.340825 -1.696855,-2.011247 -5.091163,-2.011247 z m 60.892406,10.432437 c 0,1.26228 0.68507,1.893425 2.054657,1.893425 0.48006,0 0.956368,-0.0689 1.429369,-0.206706 l -0.721403,2.834452 c -0.427085,0.07494 -0.931222,0.117306 -1.534273,0.117306 h -5.59139 c 0.593016,-1.300864 1.164998,-2.226911 1.715657,-2.778125 -0.232971,-0.01102 -0.402601,-0.01654 -0.508495,-0.01654 -0.903645,0 -1.581129,0.159854 -2.032953,0.479558 -0.451821,0.314192 -0.840038,0.895728 -1.164785,1.744596 l -0.211873,0.570508 h -1.59887 c -0.642434,0 -1.098055,0.07442 -1.366324,0.223242 -0.268269,0.148828 -0.607012,0.51539 -1.016476,1.099675 0.444762,-0.165362 1.041225,-0.248047 1.789554,-0.248047 h 1.789555 l -0.486791,1.389062 c -0.170463,0.466506 -0.319665,0.905965 -0.448551,1.320334 -0.949129,1.025576 -1.911321,1.906593 -2.887162,2.640148 -1.320168,0.992185 -2.361909,1.488281 -3.124359,1.488281 -0.72009,0 -1.080037,-0.603583 -1.080037,-1.810742 0,-1.047306 0.102743,-1.962327 0.307475,-2.745052 l 0.179834,-0.7028 c 0.211791,-0.832331 0.518986,-1.488281 0.921391,-1.967838 -0.190612,-0.0055 -0.328179,-0.0083 -0.412896,-0.0083 -1.313108,0 -2.061787,0.256317 -2.245339,0.768945 -1.242512,-0.518139 -2.39682,-0.777214 -3.462837,-0.777214 -1.757873,0 -3.307467,0.655953 -4.648814,1.967839 -1.334286,1.311889 -2.001427,2.830497 -2.001427,4.555794 0,0.865405 0.222379,1.559941 0.667141,2.083594 0.451824,0.518141 1.052079,0.777213 1.800408,0.777213 0.981302,0 2.131819,-0.509875 3.451987,-1.529622 1.327226,-1.025255 2.442921,-2.268254 3.346563,-3.728971 -0.04235,0.700042 -0.06356,1.256773 -0.06356,1.670182 0,1.98437 0.762299,2.976562 2.287198,2.976562 1.207212,0 2.650789,-0.60634 4.331002,-1.81901 0.749628,-0.543488 1.460121,-1.150242 2.135272,-1.813324 -0.06522,0.398327 -0.101804,0.760904 -0.101804,1.077452 0,0.931553 0.264787,1.692235 0.794266,2.282031 0.536541,0.589798 1.228159,0.8847 2.075325,0.8847 0.960123,0 2.02255,-0.325217 3.187404,-0.975651 1.171914,-0.655944 1.758032,-1.254016 1.758032,-1.794205 0,-0.203949 -0.09516,-0.440973 -0.285771,-0.711068 -0.303567,0.507119 -0.815732,0.961874 -1.535824,1.364258 -0.713031,0.402386 -1.373103,0.603581 -1.98024,0.603581 -1.178973,0 -1.768369,-0.639414 -1.768369,-1.91823 0,-1.157546 0.42735,-2.871837 1.281575,-5.142838 0.0353,-0.08819 0.08805,-0.223242 0.158647,-0.405143 h 5.951575 c 0.596614,0 1.050393,-0.04809 1.36271,-0.143661 l -1.182876,4.649846 c -0.169439,0.661458 -0.261321,1.016994 -0.275434,1.066601 -0.444764,1.532374 -0.667144,2.450153 -0.667144,2.75332 0,0.43546 0.314264,0.65319 0.942578,0.65319 0.508299,0 0.921515,-0.0689 1.239203,-0.206705 -0.134136,-0.132289 -0.201539,-0.267338 -0.201539,-0.405144 0,-0.41892 0.81229,-1.752872 2.436027,-4.001822 1.60962,-2.232414 2.93304,-3.348633 3.97082,-3.348633 0.73421,0 1.10122,0.832342 1.10122,2.497005 v 0.735872 c 0,1.438667 0.19083,2.47496 0.57206,3.108855 0.38122,0.633896 1.00596,0.950846 1.8743,0.950846 0.93188,0 2.11447,-0.611852 3.54759,-1.835547 0.77113,-0.655217 1.49824,-1.391296 2.18436,-2.202966 -10e-4,0.0042 -0.002,0.0076 -0.003,0.01188 l -0.52916,2.058789 c -0.25415,1.008722 -0.38138,1.639867 -0.38138,1.893425 0,0.496094 0.35996,0.74414 1.08004,0.74414 0.28946,0 0.67439,-0.08819 1.15445,-0.264583 l -0.0109,-0.14056 c 0,-0.41892 0.31754,-1.11897 0.95291,-2.10013 0.63538,-0.986671 1.38406,-1.943036 2.24535,-2.869075 1.39076,-1.488276 2.53421,-2.232422 3.43079,-2.232422 0.49419,0 0.87534,0.217733 1.1436,0.65319 1.07308,-0.639406 1.60973,-1.152041 1.60973,-1.537891 0,-0.248044 -0.14136,-0.457509 -0.42375,-0.628385 -0.28238,-0.176387 -0.61733,-0.264584 -1.00563,-0.264584 -1.10131,0 -2.33009,0.562245 -3.68556,1.686719 -1.34841,1.118963 -2.68976,2.68994 -4.02404,4.712891 l 0.60409,-2.406055 c 0.35299,-1.289838 0.52917,-2.086351 0.52917,-2.389518 0,-0.490577 -0.24686,-0.735873 -0.74104,-0.735873 -0.46594,0 -1.06947,0.09922 -1.81074,0.297657 0.23297,0.214974 0.34933,0.482314 0.34933,0.802018 0,0.146016 -0.0101,0.311748 -0.03,0.496612 -1.04205,1.3081 -2.06991,2.411476 -3.08353,3.306773 -1.1225,0.997694 -1.94513,1.488279 -2.46755,1.471745 -0.6495,-0.02756 -0.9741,-0.901242 -0.9741,-2.621029 l -0.0103,-0.992187 c 0,-1.278813 -0.19411,-2.202106 -0.58239,-2.769857 -0.38829,-0.573262 -1.02009,-0.859896 -1.89549,-0.859896 -2.18852,0 -4.33509,1.849343 -6.438887,5.547982 0.120015,-0.463018 0.204827,-0.777213 0.254249,-0.942578 0.628314,-1.973342 0.95292,-2.99861 0.9741,-3.075781 l 1.736848,-6.837826 c -1.164858,0.396875 -2.378986,0.595313 -3.642676,0.595313 -0.896583,0 -1.68388,-0.198438 -2.361613,-0.595313 z m 84.388129,0 c 0,1.26228 0.68456,1.893425 2.05414,1.893425 0.48006,0 0.95688,-0.0689 1.42989,-0.206706 l -1.65365,6.500379 c -3.17797,3.623783 -5.97348,5.438944 -8.38502,5.438944 -0.946,0 -1.71536,-0.278366 -2.30838,-0.835091 -0.58595,-0.562237 -0.87902,-1.28709 -0.87902,-2.174544 0,-0.538301 0.10831,-1.054902 0.32298,-1.550292 0.14215,-0.189272 0.28376,-0.378828 0.41806,-0.574643 l -0.0868,-0.03721 c 0.18522,-0.290089 0.40473,-0.573249 0.66921,-0.847495 0.88954,-0.920525 1.86059,-1.380794 2.91249,-1.380794 1.21426,0 1.82107,0.44649 1.82107,1.339453 0,0.121269 -0.0353,0.248049 -0.10593,0.380339 1.32017,-0.303168 1.98024,-0.757923 1.98024,-1.364258 0,-0.369314 -0.25721,-0.672484 -0.77256,-0.909505 -0.50831,-0.242533 -1.16183,-0.363803 -1.95958,-0.363803 -1.96965,0 -3.68508,0.570514 -5.14645,1.711524 -1.19265,0.926719 -1.89789,1.985489 -2.11718,3.17655 -0.95148,0.913339 -1.96392,1.706341 -3.04013,2.371432 -1.82846,1.129987 -3.50149,1.694987 -5.01933,1.694987 -1.75081,0 -2.6262,-0.807535 -2.6262,-2.422592 1.97672,0 3.72422,-0.380341 5.24206,-1.141015 1.5249,-0.760675 2.2872,-1.634355 2.2872,-2.621029 0,-0.600821 -0.27514,-1.080381 -0.82579,-1.438672 -0.5436,-0.358288 -1.27108,-0.537435 -2.18178,-0.537435 -1.88494,0 -3.49815,0.567757 -4.8395,1.703256 -1.33428,1.135499 -2.00142,2.502524 -2.00142,4.101041 0,1.10794 0.36752,1.981621 1.10174,2.621029 0.74127,0.639408 1.74716,0.959114 3.0179,0.959114 1.98379,0 4.08037,-0.661461 6.29006,-1.984375 0.93151,-0.555905 1.78493,-1.177152 2.56935,-1.8557 0.12842,0.880375 0.53229,1.619184 1.22163,2.211234 0.84717,0.727602 1.95252,1.091407 3.31504,1.091407 1.63786,0 3.41311,-0.642171 5.32629,-1.926498 1.12814,-0.760566 2.21986,-1.690494 3.2768,-2.780707 -0.16272,0.635212 -0.25591,0.995807 -0.26975,1.044379 -0.44476,1.532374 -0.66714,2.450153 -0.66714,2.75332 0,0.43546 0.31427,0.65319 0.94258,0.65319 0.50831,0 0.921,-0.0689 1.23868,-0.206705 -0.13413,-0.132289 -0.20102,-0.267338 -0.20102,-0.405144 0,-0.41892 0.81177,-1.752872 2.43551,-4.001822 1.60962,-2.232414 2.93356,-3.348633 3.97134,-3.348633 0.7342,0 1.10122,0.832342 1.10122,2.497005 v 0.735872 c 0,1.438667 0.19083,2.47496 0.57206,3.108855 0.38123,0.633896 1.00596,0.950846 1.8743,0.950846 0.93189,0 2.11395,-0.611852 3.54707,-1.835547 1.44018,-1.223693 2.73258,-2.720253 3.87625,-4.489648 l -0.87901,-0.380339 c -1.16486,1.510326 -2.31209,2.764348 -3.44165,3.762044 -1.1225,0.997694 -1.94513,1.488279 -2.46755,1.471745 -0.6495,-0.02756 -0.9741,-0.901242 -0.9741,-2.621029 l -0.0103,-0.992187 c 0,-1.278813 -0.1941,-2.202106 -0.58239,-2.769857 -0.38829,-0.573262 -1.02009,-0.859896 -1.89549,-0.859896 -2.18851,0 -4.33457,1.849343 -6.43837,5.547982 h -5.2e-4 c 0.12003,-0.463018 0.20485,-0.777213 0.25425,-0.942578 0.62829,-1.973342 0.9529,-2.99861 0.9741,-3.075781 l 1.73685,-6.837826 c -1.16486,0.396875 -2.37898,0.595313 -3.64268,0.595313 -0.89658,0 -1.68387,-0.198438 -2.36161,-0.595313 z m -48.46836,1.91823 c -0.50124,0.369313 -1.19665,0.733118 -2.08618,1.091406 -0.88247,0.352779 -1.55995,0.53744 -2.03295,0.553971 l -0.14831,-0.0083 c -0.16238,0.308681 -0.24339,0.65595 -0.24339,1.041797 0,0.270094 0.14083,0.405143 0.42323,0.405143 0.42358,0 1.23536,-0.391364 2.43551,-1.174089 0.79069,-0.512627 1.34146,-1.149286 1.65209,-1.90996 z m -85.267142,3.389973 c -1.75787,0 -3.307466,0.764162 -4.648814,2.292885 -1.334288,1.528723 -2.001427,3.298259 -2.001427,5.308719 0,1.008443 0.22238,1.818071 0.667141,2.428277 0.451824,0.603779 1.052079,0.90537 1.800408,0.90537 0.981303,0 2.131819,-0.594027 3.451987,-1.782321 1.326959,-1.194475 2.442501,-2.642732 3.346048,-4.344437 -0.04233,0.815477 -0.06304,1.463992 -0.06304,1.945619 0,2.312352 0.762299,3.46852 2.287198,3.46852 1.207212,0 2.650789,-0.706662 4.331002,-2.119767 1.405258,-1.187228 2.67794,-2.623032 3.821472,-4.299995 0.183661,0.296913 0.364628,0.609753 0.541571,0.943094 0.776567,1.44418 1.316487,2.904911 1.620054,4.382161 -1.884945,2.133195 -3.861372,3.199805 -5.929871,3.199805 -0.571836,0 -1.051938,-0.0937 -1.440222,-0.28112 -0.169434,0.341755 -0.254246,0.639411 -0.254246,0.892969 0,0.622871 0.47303,0.93431 1.419034,0.93431 1.051899,0 2.308434,-0.457512 3.769797,-1.372526 1.461362,-0.909503 2.933208,-2.155256 4.41575,-3.73724 1.28487,-1.37252 2.481585,-2.88286 3.589962,-4.530989 1.115436,-1.648127 1.673283,-2.736784 1.673283,-3.265951 0,-0.501602 -0.617667,-0.824066 -1.853118,-0.967383 -0.197673,2.204855 -1.489546,4.781804 -3.875733,7.730795 -0.367104,-1.284325 -0.921676,-2.717496 -1.662946,-4.299479 -0.473003,-1.008719 -0.868288,-1.678451 -1.185976,-2.00918 -0.310626,-0.336238 -0.702119,-0.504362 -1.17512,-0.504362 -0.550659,0 -1.087303,0.170878 -1.609723,0.51263 0.463722,0.393428 0.909728,0.881086 1.339453,1.458828 -1.133348,1.517253 -2.285793,2.789785 -3.45767,3.816302 -1.320167,1.156176 -2.36139,1.734262 -3.12384,1.734262 -0.72009,0 -1.080037,-0.703268 -1.080037,-2.109949 0,-1.220406 0.102227,-2.286675 0.306959,-3.19877 L 50.44956,46.0516 c 0.211793,-0.969904 0.518469,-1.734582 0.920874,-2.2934 -0.190614,-0.0065 -0.328179,-0.0098 -0.412896,-0.0098 -1.313108,0 -2.06127,0.298712 -2.244822,0.89607 -1.242513,-0.603782 -2.396821,-0.905373 -3.462838,-0.905373 z m 29.057655,1.016993 c 0.981303,0 2.213359,0.377586 3.695899,1.132747 -0.254149,0.264581 -0.39878,0.418923 -0.434081,0.463021 -2.852126,3.46162 -4.78287,5.192448 -5.792412,5.192448 -0.931881,0 -1.397846,-0.556731 -1.397846,-1.670183 0,-1.389057 0.388217,-2.587958 1.164785,-3.596679 0.776571,-1.01423 1.697638,-1.521354 2.763655,-1.521354 z M 44.667482,44.92402 c 0.981303,0 2.213359,0.439838 3.695899,1.319816 -0.254148,0.308311 -0.399299,0.488116 -0.434597,0.539501 -2.852129,4.033771 -4.782873,6.050793 -5.792411,6.050793 -0.931884,0 -1.39785,-0.648647 -1.39785,-1.946132 0,-1.618649 0.388218,-3.015514 1.164789,-4.19096 0.776568,-1.181867 1.698154,-1.773018 2.76417,-1.773018 z m 81.465828,0.137975 c -0.23297,0 -0.80875,0.08268 -1.72651,0.248047 0.24003,0.198437 0.36018,0.454755 0.36018,0.768945 1e-5,0.529167 -0.1729,1.449703 -0.51882,2.761589 l -0.23307,0.909505 c -0.1412,0.540189 -0.21187,0.934313 -0.21187,1.182357 0,0.655944 0.2403,1.185113 0.72037,1.5875 0.48713,0.402386 1.126,0.60358 1.91668,0.60358 1.29899,0 2.76377,-0.614608 4.39456,-1.843815 1.6308,-1.234715 3.24401,-2.943497 4.8395,-5.126302 l -0.87902,-0.405143 c -1.37664,1.780421 -2.79901,3.252176 -4.26744,4.415234 -1.46841,1.15755 -2.64393,1.736329 -3.52639,1.736329 -0.74127,0 -1.11208,-0.341755 -1.11208,-1.025261 0,-0.231508 0.10223,-0.735875 0.30696,-1.513086 l 0.41341,-1.612304 c 0.20473,-0.793748 0.30696,-1.402845 0.30695,-1.827279 1e-5,-0.573262 -0.26099,-0.859896 -0.78341,-0.859896 z m 34.61701,0.28112 c 0.8048,0 1.20716,0.352782 1.20716,1.058333 0,0.788236 -0.52958,1.482773 -1.58853,2.083594 -1.0519,0.600824 -2.31551,0.931555 -3.79099,0.992187 0.19768,-1.146524 0.70278,-2.12218 1.51464,-2.926953 0.81187,-0.80477 1.69759,-1.207161 2.65772,-1.207161 z"/>
</svg>